<?xml version="1.0" encoding="utf-8"?>
<!-- Generator: Adobe Illustrator 24.0.3, SVG Export Plug-In . SVG Version: 6.00 Build 0)  -->
<svg version="1.1" id="Calque_1" xmlns="http://www.w3.org/2000/svg" xmlns:xlink="http://www.w3.org/1999/xlink" x="0px" y="0px"
	 viewBox="0 0 1190.5 154.4" style="enable-background:new 0 0 1190.5 154.4;" xml:space="preserve">
<style type="text/css">
	.st0{opacity:0.6;}
	.st1{opacity:0;fill-rule:evenodd;clip-rule:evenodd;fill:#FFFFFF;}
	.st2{opacity:6.250000e-02;fill-rule:evenodd;clip-rule:evenodd;fill:#F0EEEF;}
	.st3{opacity:0.125;fill-rule:evenodd;clip-rule:evenodd;fill:#E0DEDF;}
	.st4{opacity:0.1875;fill-rule:evenodd;clip-rule:evenodd;fill:#D0CECF;}
	.st5{opacity:0.25;fill-rule:evenodd;clip-rule:evenodd;fill:#C2C0C0;}
	.st6{opacity:0.3125;fill-rule:evenodd;clip-rule:evenodd;fill:#B5B2B3;}
	.st7{opacity:0.375;fill-rule:evenodd;clip-rule:evenodd;fill:#A7A4A4;}
	.st8{opacity:0.4375;fill-rule:evenodd;clip-rule:evenodd;fill:#9A9697;}
	.st9{opacity:0.5;fill-rule:evenodd;clip-rule:evenodd;fill:#8D8A8A;}
	.st10{opacity:0.5625;fill-rule:evenodd;clip-rule:evenodd;fill:#817F7F;}
	.st11{opacity:0.625;fill-rule:evenodd;clip-rule:evenodd;fill:#777474;}
	.st12{opacity:0.6875;fill-rule:evenodd;clip-rule:evenodd;fill:#6C6868;}
	.st13{opacity:0.75;fill-rule:evenodd;clip-rule:evenodd;fill:#615E5D;}
	.st14{opacity:0.8125;fill-rule:evenodd;clip-rule:evenodd;fill:#575454;}
	.st15{opacity:0.875;fill-rule:evenodd;clip-rule:evenodd;fill:#4D4B4B;}
	.st16{opacity:0.9375;fill-rule:evenodd;clip-rule:evenodd;fill:#434242;}
	.st17{fill-rule:evenodd;clip-rule:evenodd;fill:#3A3A3A;}
	.st18{fill-rule:evenodd;clip-rule:evenodd;fill:#10192B;}
	.st19{fill-rule:evenodd;clip-rule:evenodd;fill:#FFFFFF;}
	.st20{fill-rule:evenodd;clip-rule:evenodd;fill:#2EB3BE;}
</style>
<g>
	<g class="st0">
		<path class="st1" d="M0,134.8v-0.6C395.6-17.6,861.4-0.8,1190.6,42.2v92.6H0z"/>
		<path class="st2" d="M0,136v-0.6C395.6-16.4,861.4,0.4,1190.6,43.4V136H0z"/>
		<path class="st3" d="M0,137.2v-0.6C395.6-15.2,861.4,1.6,1190.6,44.6v92.6H0z"/>
		<path class="st4" d="M0,138.4v-0.6C395.6-14,861.4,2.9,1190.6,45.9v92.6H0z"/>
		<path class="st5" d="M0,139.7V139C395.6-12.7,861.4,4.1,1190.6,47.1v92.6H0z"/>
		<path class="st6" d="M0,140.9v-0.7C395.6-11.5,861.4,5.3,1190.6,48.3v92.6H0z"/>
		<path class="st7" d="M0,142.1v-0.7C395.6-10.3,861.4,6.6,1190.6,49.5v92.6H0z"/>
		<path class="st8" d="M0,143.3v-0.7C395.6-9.1,861.4,7.8,1190.6,50.8v92.6H0z"/>
		<path class="st9" d="M0,144.6v-0.7C395.6-7.8,861.4,9,1190.6,52v92.6H0z"/>
		<path class="st10" d="M0,145.8v-0.7C395.6-6.6,861.4,10.2,1190.6,53.2v92.6H0z"/>
		<path class="st11" d="M0,147v-0.7C395.6-5.4,861.4,11.5,1190.6,54.4V147H0z"/>
		<path class="st12" d="M0,148.3v-0.7C395.6-4.1,861.4,12.7,1190.6,55.7v92.6H0z"/>
		<path class="st13" d="M0,149.5v-0.7C395.6-2.9,861.4,13.9,1190.6,56.9v92.6H0z"/>
		<path class="st14" d="M0,150.7V150C395.6-1.7,861.4,15.1,1190.6,58.1v92.6H0z"/>
		<path class="st15" d="M0,151.9v-0.7C395.6-0.5,861.4,16.4,1190.6,59.3v92.6H0z"/>
		<path class="st16" d="M0,153.2v-0.7C395.6,0.8,861.4,17.6,1190.6,60.6v92.6H0z"/>
		<path class="st17" d="M0,154.4v-0.7C395.6,2,861.4,18.8,1190.6,61.8v92.6H0z"/>
	</g>
	<path class="st18" d="M0,153.7L0,153.7C395.6,2,861.4,18.8,1190.6,61.8v92.6L0,153.7z"/>
	<g>
		<path class="st19" d="M1190.6,63.3v-1.5C861.4,18.8,395.6,2,0,153.7v0.7h19.7C410.9,10.6,866.9,20.9,1190.6,63.3z"/>
	</g>
	<g>
		<path class="st20" d="M0,105.5V78.4C406.3-35.8,861.1,4.3,1190.6,43.7v4.5C861.2,8.8,406.3-8.6,0,105.5z"/>
	</g>
</g>
</svg>
