<?xml version="1.0" encoding="utf-8"?>
<!-- Generator: Adobe Illustrator 24.0.3, SVG Export Plug-In . SVG Version: 6.00 Build 0)  -->
<svg version="1.1" id="Calque_1" xmlns="http://www.w3.org/2000/svg" xmlns:xlink="http://www.w3.org/1999/xlink" x="0px" y="0px"
	 viewBox="0 0 1189.4 211" style="enable-background:new 0 0 1189.4 211;" xml:space="preserve">
<style type="text/css">
	.st0{opacity:0.6;}
	.st1{opacity:0;fill-rule:evenodd;clip-rule:evenodd;fill:#FFFFFF;}
	.st2{opacity:6.250000e-02;fill-rule:evenodd;clip-rule:evenodd;fill:#F0EFEF;}
	.st3{opacity:0.125;fill-rule:evenodd;clip-rule:evenodd;fill:#E0DEDF;}
	.st4{opacity:0.1875;fill-rule:evenodd;clip-rule:evenodd;fill:#D1CFCF;}
	.st5{opacity:0.25;fill-rule:evenodd;clip-rule:evenodd;fill:#C3C0C1;}
	.st6{opacity:0.3125;fill-rule:evenodd;clip-rule:evenodd;fill:#B5B2B3;}
	.st7{opacity:0.375;fill-rule:evenodd;clip-rule:evenodd;fill:#A8A5A5;}
	.st8{opacity:0.4375;fill-rule:evenodd;clip-rule:evenodd;fill:#9B9798;}
	.st9{opacity:0.5;fill-rule:evenodd;clip-rule:evenodd;fill:#8E8B8B;}
	.st10{opacity:0.5625;fill-rule:evenodd;clip-rule:evenodd;fill:#827F7F;}
	.st11{opacity:0.625;fill-rule:evenodd;clip-rule:evenodd;fill:#777373;}
	.st12{opacity:0.6875;fill-rule:evenodd;clip-rule:evenodd;fill:#6C6868;}
	.st13{opacity:0.75;fill-rule:evenodd;clip-rule:evenodd;fill:#615E5E;}
	.st14{opacity:0.8125;fill-rule:evenodd;clip-rule:evenodd;fill:#575454;}
	.st15{opacity:0.875;fill-rule:evenodd;clip-rule:evenodd;fill:#4D4B4B;}
	.st16{opacity:0.9375;fill-rule:evenodd;clip-rule:evenodd;fill:#434242;}
	.st17{fill-rule:evenodd;clip-rule:evenodd;fill:#3B3A3A;}
	.st18{fill-rule:evenodd;clip-rule:evenodd;fill:#1390A8;}
	.st19{fill-rule:evenodd;clip-rule:evenodd;fill:#FFFFFF;}
	.st20{fill-rule:evenodd;clip-rule:evenodd;fill:#2DB4BF;}
</style>
<g>
	<g class="st0">
		<path class="st1" d="M1190.6,27.4v1C795,240.2,329.1,216.6,0,156.7V27.4H1190.6z"/>
		<path class="st2" d="M1190.6,25.7v1C795,238.5,329.1,214.9,0,155V25.7H1190.6z"/>
		<path class="st3" d="M1190.6,24v1C795,236.7,329.1,213.2,0,153.2V24H1190.6z"/>
		<path class="st4" d="M1190.6,22.3v1C795,235,329.1,211.5,0,151.5V22.3H1190.6z"/>
		<path class="st5" d="M1190.6,20.5v1C795,233.3,329.1,209.8,0,149.8V20.5H1190.6z"/>
		<path class="st6" d="M1190.6,18.8v1C795,231.6,329.1,208.1,0,148.1V18.8H1190.6z"/>
		<path class="st7" d="M1190.6,17.1v1C795,229.9,329.1,206.3,0,146.4V17.1H1190.6z"/>
		<path class="st8" d="M1190.6,15.4v1C795,228.2,329.1,204.6,0,144.7V15.4H1190.6z"/>
		<path class="st9" d="M1190.6,13.7v1C795,226.5,329.1,202.9,0,143V13.7H1190.6z"/>
		<path class="st10" d="M1190.6,12v1C795,224.8,329.1,201.2,0,141.3V12H1190.6z"/>
		<path class="st11" d="M1190.6,10.3v1C795,223,329.1,199.5,0,139.5V10.3H1190.6z"/>
		<path class="st12" d="M1190.6,8.6v1C795,221.3,329.1,197.8,0,137.8V8.6H1190.6z"/>
		<path class="st13" d="M1190.6,6.8v1C795,219.6,329.1,196.1,0,136.1V6.8H1190.6z"/>
		<path class="st14" d="M1190.6,5.1v1C795,217.9,329.1,194.4,0,134.4V5.1H1190.6z"/>
		<path class="st15" d="M1190.6,3.4v1C795,216.2,329.1,192.6,0,132.7V3.4H1190.6z"/>
		<path class="st16" d="M1190.6,1.7v1C795,214.5,329.1,190.9,0,131V1.7H1190.6z"/>
		<path class="st17" d="M1190.6,0v1C795,212.8,329.1,189.2,0,129.3V0H1190.6z"/>
	</g>
	<path class="st18" d="M1190.6,1L1190.6,1C795,212.8,329.1,189.2,0,129.3V0L1190.6,1z"/>
	<g>
		<path class="st19" d="M0,127.3v2c329.1,60,795,83.5,1190.6-128.3V0h-19.7C779.6,200.8,323.7,186.3,0,127.3z"/>
	</g>
	<g>
		<path class="st20" d="M1190.6,68.2v38C784.2,265.5,329.5,209.6,0,154.6v-6.3C329.4,203.2,784.3,227.5,1190.6,68.2z"/>
	</g>
</g>
</svg>
