<?xml version="1.0" encoding="utf-8"?>
<!-- Generator: Adobe Illustrator 24.0.3, SVG Export Plug-In . SVG Version: 6.00 Build 0)  -->
<svg version="1.1" id="Calque_1" xmlns="http://www.w3.org/2000/svg" xmlns:xlink="http://www.w3.org/1999/xlink" x="0px" y="0px"
	 viewBox="0 0 28.3 28.3" style="enable-background:new 0 0 28.3 28.3;" xml:space="preserve">
<style type="text/css">
	.st0{fill:#020203;}
</style>
<g>
	<path class="st0" d="M14.2,0C6.4,0,0,6.4,0,14.2s6.4,14.2,14.2,14.2c1.3,0,2.6-0.2,3.9-0.6c2.7-1.2,4.2-4.2,3.6-7.1l0,0
		c0.4-0.4,0.6-1.2,0.4-1.8L22,18.7c-0.2-0.6-0.8-1.1-1.4-1.3l-2.1-0.6c-0.6-0.2-1.4,0.1-1.8,0.5L16,18c-2.8-0.7-4.9-2.9-5.7-5.7
		l0.8-0.8c0.4-0.4,0.6-1.2,0.5-1.8L11,7.7c-0.2-0.6-0.7-1.2-1.3-1.4L9.4,6.3c-0.6-0.2-1.4,0-1.8,0.4L6.5,7.8C6.3,8,6.2,8.6,6.2,8.6
		c0,3.6,1.4,7.1,3.9,9.6c2.5,2.5,6,3.9,9.6,3.9c0,0,0.1,0,0.3-0.1c0,1.7-1,3.4-2.5,4.1c-1.1,0.3-2.2,0.4-3.3,0.4
		C7.3,26.6,1.8,21,1.8,14.2S7.3,1.8,14.2,1.8s12.4,5.6,12.4,12.4c0,2-0.5,4-1.4,5.8c-0.2,0.4-0.1,1,0.4,1.2c0.4,0.2,1,0.1,1.2-0.4
		c1.1-2,1.6-4.3,1.6-6.6C28.3,6.4,22,0,14.2,0z"/>
</g>
</svg>
