<?xml version="1.0" encoding="utf-8"?>
<!-- Generator: Adobe Illustrator 24.0.3, SVG Export Plug-In . SVG Version: 6.00 Build 0)  -->
<svg version="1.1" id="Calque_1" xmlns="http://www.w3.org/2000/svg" xmlns:xlink="http://www.w3.org/1999/xlink" x="0px" y="0px"
	 viewBox="0 0 28.3 28.3" style="enable-background:new 0 0 28.3 28.3;" xml:space="preserve">
<style type="text/css">
	.st0{fill:#020203;}
</style>
<g id="Layer_2">
	<path class="st0" d="M14.2,28.3C6.3,28.3,0,22,0,14.2S6.3,0,14.2,0s14.2,6.3,14.2,14.2S22,28.3,14.2,28.3z M14.2,2.2
		c-6.6,0-12,5.4-12,12s5.4,12,12,12s12-5.4,12-12S20.8,2.2,14.2,2.2z"/>
	<path class="st0" d="M20.2,21.3c-0.3,0-0.6-0.1-0.8-0.3l-6-6c-0.2-0.2-0.3-0.5-0.3-0.8V5.5c0-0.6,0.5-1.1,1.1-1.1
		c0.6,0,1.1,0.5,1.1,1.1v8.3l5.7,5.7c0.4,0.4,0.4,1.1,0,1.5c0,0,0,0,0,0C20.7,21.1,20.5,21.3,20.2,21.3z"/>
</g>
</svg>
