<?xml version="1.0" encoding="utf-8"?>
<!-- Generator: Adobe Illustrator 24.0.3, SVG Export Plug-In . SVG Version: 6.00 Build 0)  -->
<svg version="1.1" id="Calque_1" xmlns="http://www.w3.org/2000/svg" xmlns:xlink="http://www.w3.org/1999/xlink" x="0px" y="0px"
	 viewBox="0 0 28.3 28.3" style="enable-background:new 0 0 28.3 28.3;" xml:space="preserve">
<style type="text/css">
	.st0{fill:#020203;}
</style>
<g id="about">
	<path class="st0" d="M14.2,14.2c3.9,0,7.1-3.2,7.1-7.1S18.1,0,14.2,0S7.1,3.2,7.1,7.1S10.3,14.2,14.2,14.2z M14.2,2
		c2.8,0,5.1,2.3,5.1,5.1s-2.3,5.1-5.1,5.1S9.1,9.9,9.1,7.1S11.4,2,14.2,2z"/>
	<path class="st0" d="M15.2,16.2h-2C7,16.2,2,21.2,2,27.3c0,0.6,0.5,1,1,1h22.3c0.6,0,1-0.5,1-1C26.3,21.2,21.3,16.2,15.2,16.2z
		 M4.1,26.3c0.5-4.6,4.4-8.1,9.1-8.1h2c4.6,0,8.5,3.5,9.1,8.1H4.1z"/>
</g>
</svg>
