<?xml version="1.0" encoding="utf-8"?>
<!-- Generator: Adobe Illustrator 24.0.3, SVG Export Plug-In . SVG Version: 6.00 Build 0)  -->
<svg version="1.1" id="Calque_1" xmlns="http://www.w3.org/2000/svg" xmlns:xlink="http://www.w3.org/1999/xlink" x="0px" y="0px"
	 viewBox="0 0 28.3 28.3" style="enable-background:new 0 0 28.3 28.3;" xml:space="preserve">
<style type="text/css">
	.st0{fill-rule:evenodd;clip-rule:evenodd;fill:#020203;}
</style>
<g>
	<g>
		<g>
			<path class="st0" d="M14.2,17.1c2.9,0,5.3-2.4,5.3-5.3s-2.4-5.3-5.3-5.3s-5.3,2.4-5.3,5.3S11.2,17.1,14.2,17.1z M14.2,8.5
				c1.8,0,3.2,1.4,3.2,3.2s-1.4,3.2-3.2,3.2S11,13.5,11,11.7S12.4,8.5,14.2,8.5z"/>
		</g>
	</g>
	<g>
		<g>
			<path class="st0" d="M22.5,3.4c-4.6-4.6-12-4.6-16.6,0s-4.6,12,0,16.6l8.3,8.3l8.3-8.3C27.1,15.5,27.1,8,22.5,3.4z M21,18.5
				l-6.8,6.8l-6.8-6.8c-3.8-3.8-3.8-9.8,0-13.6s9.8-3.8,13.6,0C24.7,8.7,24.7,14.8,21,18.5z"/>
		</g>
	</g>
</g>
</svg>
