<?xml version="1.0" encoding="utf-8"?>
<!-- Generator: Adobe Illustrator 24.0.3, SVG Export Plug-In . SVG Version: 6.00 Build 0)  -->
<svg version="1.1" id="Calque_1" xmlns="http://www.w3.org/2000/svg" xmlns:xlink="http://www.w3.org/1999/xlink" x="0px" y="0px"
	 viewBox="0 0 28.3 28.3" style="enable-background:new 0 0 28.3 28.3;" xml:space="preserve">
<g>
	<g id="Icon-Envelope" transform="translate(78.000000, 232.000000)">
		<path id="Fill-3" d="M-49.9-225.7l-1.1-1.1l-10.4,10.4c-1.3,1.3-3.5,1.3-4.8,0l-10.4-10.4l-1.1,1.1l7.8,7.8l-7.8,7.8l1.1,1.1
			l7.8-7.8l1.5,1.5c0.9,0.9,2.2,1.5,3.5,1.5s2.5-0.5,3.5-1.5l1.5-1.5l7.8,7.8l1.1-1.1l-7.8-7.8L-49.9-225.7"/>
		<path id="Fill-4" d="M-52.1-207h-23.4c-1.4,0-2.5-1.1-2.5-2.5v-16.7c0-1.4,1.1-2.5,2.5-2.5h23.4c1.4,0,2.5,1.1,2.5,2.5v16.7
			C-49.7-208.1-50.8-207-52.1-207L-52.1-207z M-75.6-227.1c-0.5,0-0.8,0.4-0.8,0.8v16.7c0,0.5,0.4,0.8,0.8,0.8h23.4
			c0.5,0,0.8-0.4,0.8-0.8v-16.7c0-0.5-0.4-0.8-0.8-0.8H-75.6L-75.6-227.1z"/>
	</g>
</g>
</svg>
