<?xml version="1.0" encoding="utf-8"?>
<!-- Generator: Adobe Illustrator 24.0.3, SVG Export Plug-In . SVG Version: 6.00 Build 0)  -->
<svg version="1.1" id="linkedin" xmlns="http://www.w3.org/2000/svg" xmlns:xlink="http://www.w3.org/1999/xlink" x="0px" y="0px"
	 viewBox="0 0 612 611.6" style="enable-background:new 0 0 612 611.6;" xml:space="preserve">
<style type="text/css">
	.st0{fill:#FFFFFF;}
</style>
<path class="st0" d="M306-0.2C137.1-0.2,0,136.9,0,305.8s137.1,306,306,306s306-137.1,306-306C612.5,136.9,475.4-0.2,306-0.2z
	 M178.9,137.4c20.6,0,37.6,15.4,37.6,34.4s-16.4,34.4-37.6,34.4c-20.6,0-37.6-15.4-37.6-34.4S158.3,137.4,178.9,137.4z M217.1,431.8
	h-74.6V237.5h74.6C217.1,237.5,217.1,431.8,217.1,431.8z M470.6,431.8h-75.2V324.8c0-12.2-2.1-20.6-6.9-25.9s-11.1-7.4-19.1-7.4
	c-9,0-16.4,3.2-22.2,10.1c-5.8,6.9-8.5,19.1-8.5,37.1v93.2h-74.1V237.5h69.4v31.8c10.6-12.7,20.6-22.2,31.2-27.5
	c10.6-5.3,23.3-8.5,38.6-8.5c20.6,0,36.5,6.4,48.7,18.5c11.6,12.2,17.5,31.2,17.5,56.6L470.6,431.8L470.6,431.8z"/>
</svg>
